<svg width="66" height="99" viewBox="0 0 66 99" fill="none" xmlns="http://www.w3.org/2000/svg">
<g clip-path="url(#clip0)">
<path d="M27.0103 29.1402C19.4384 31.2805 12.7141 34.7927 7.40242 40.6098C4.7466 43.5732 2.59934 46.811 0.904131 50.3781C0.452076 48.8964 0.452076 48.622 0.395569 47.8537C0.395569 47.7439 0.395569 47.6342 0.395569 47.5244C1.69523 33.0366 6.55481 19.7561 14.8613 7.62805C16.613 5.10366 19.8339 4.55488 22.3202 6.03659C24.9195 7.62805 25.7106 10.6463 24.1284 13.3902C22.8853 15.5854 21.4726 17.7805 20.173 19.9756C19.7209 20.6341 19.4949 21.1829 19.3254 22.061C19.2689 22.2805 19.2689 22.2256 19.1558 22.4451C19.3819 22.5 19.4384 22.5549 19.7774 22.3354C20.286 21.7317 20.286 21.7317 20.7945 21.0732C27.8579 12.5671 36.2774 5.65244 45.8836 0C53.6815 2.96342 54.5856 8.28659 48.3134 12.2927C43.7928 15.2012 39.5548 18.4939 35.7123 22.2805C35.0908 22.8841 34.1867 23.4329 34.1867 24.4756C33.3391 28.2073 29.4966 27.7134 27.0103 29.1402Z" fill="#EA1E25"/>
<path d="M35.5993 55.7561C35.3168 55.0976 35.0907 54.7134 34.9212 54.2744C31.4743 45.9878 22.2637 44.561 16.4435 51.5305C11.8664 57.0183 11.4709 63.2195 13.8442 69.75C17.2911 79.3537 27.9709 86.9268 37.9161 86.4329C43.9623 86.1585 48.9349 83.1402 53.512 79.5183C57.1284 76.6098 60.5753 76.5549 63.1747 79.4634C65.774 82.372 65.2654 85.7744 61.7055 88.6829C54.9246 94.2256 47.1267 97.6829 38.4247 98.8354C31.4743 99.7134 25.1455 96.9695 19.1558 93.8415C7.00685 87.3659 0 77.7073 0 63.9878C0 47.5793 13.3921 33.0366 30.2312 30.7866C43.9058 28.9756 55.0942 33.4207 63.9657 43.4634C65.8305 45.5488 66 48.1829 64.5308 50.5976C63.1181 52.9573 60.8014 53.4512 58.202 53.1768C56.6764 53.0122 55.6027 52.1341 54.6421 51.2012C53.5685 50.1585 52.4949 49.2256 51.1387 48.5122C45.262 45.439 40.1199 46.9756 37.0685 52.7378C36.5599 53.6159 36.2209 54.4939 35.5993 55.7561Z" fill="#EA1E25"/>
<path d="M27.0103 29.1402C29.214 27.3293 32.4914 27 34.2431 24.4756C38.8767 21.7866 43.1712 18.4939 48.3698 16.6829C51.8168 15.4756 55.3202 14.5427 58.9931 14.1585C62.5531 13.7744 65.6609 16.1341 66.0565 19.372C66.5085 23.1037 64.2483 25.9573 60.4058 26.4512C56.8459 26.9451 53.512 28.0427 50.2911 29.5244C49.4435 29.9085 48.6524 30.4573 47.6353 30.1281C40.7979 27.8781 33.9041 27.9329 27.0103 29.1402Z" fill="#EA1E25"/>
</g>
<defs>
<clipPath id="clip0">
<rect width="66" height="99" fill="white"/>
</clipPath>
</defs>
</svg>
